<?xml version="1.0" standalone="no"?>
<!DOCTYPE svg PUBLIC "-//W3C//DTD SVG 20010904//EN"
 "http://www.w3.org/TR/2001/REC-SVG-20010904/DTD/svg10.dtd">
<svg version="1.0" xmlns="http://www.w3.org/2000/svg"
 width="512.000000pt" height="512.000000pt" viewBox="0 0 512.000000 512.000000"
 preserveAspectRatio="xMidYMid meet">
<metadata>
Created by potrace 1.14, written by Peter Selinger 2001-2017
</metadata>
<g transform="translate(0.000000,512.000000) scale(0.100000,-0.100000)"
fill="#000000" stroke="none">
<path d="M2025 5095 c-27 -26 -26 2 -26 -420 0 -271 -1 -254 26 -280 13 -14
36 -25 50 -25 14 0 37 11 50 25 24 23 25 29 25 155 l0 130 130 0 c97 0 130 -3
131 -12 1 -7 3 -62 4 -123 3 -141 1 -131 27 -155 28 -26 68 -26 96 0 27 25 24
-9 26 360 2 256 0 309 -13 332 -27 50 -110 46 -128 -6 -4 -12 -8 -68 -9 -126
-1 -58 -2 -108 -3 -112 0 -5 -59 -8 -131 -8 l-130 0 0 120 c0 115 -1 122 -25
145 -13 14 -36 25 -50 25 -14 0 -37 -11 -50 -25z"/>
<path d="M2833 5038 c-18 -19 -46 -106 -68 -208 -2 -8 -26 -105 -54 -214 -28
-109 -51 -207 -51 -217 0 -43 41 -66 172 -98 150 -36 171 -38 198 -11 25 25
26 81 2 103 -10 9 -56 26 -102 38 -47 12 -89 26 -93 30 -9 7 9 107 23 129 6 9
24 8 76 -6 95 -24 132 -23 155 7 46 60 11 108 -98 134 -43 10 -81 22 -86 25
-13 11 26 140 43 140 8 0 47 -9 85 -20 39 -11 82 -20 97 -20 31 0 68 41 68 75
0 48 -29 64 -170 100 -160 41 -170 42 -197 13z"/>
<path d="M3443 4860 c-16 -7 -59 -84 -158 -287 -75 -153 -139 -293 -142 -311
-8 -46 13 -65 135 -123 114 -53 139 -58 170 -31 55 46 31 99 -67 147 -33 17
-61 35 -61 40 0 6 50 111 111 235 61 124 113 239 116 255 9 55 -48 97 -104 75z"/>
<path d="M3927 4557 c-17 -18 -44 -48 -59 -68 -285 -373 -328 -434 -328 -458
0 -37 6 -43 116 -126 119 -90 157 -96 190 -34 13 26 13 33 -2 64 -9 19 -20 35
-24 35 -4 0 -18 9 -31 21 -13 11 -34 28 -47 38 l-23 17 52 69 c29 39 55 72 58
75 4 3 39 50 80 105 41 55 77 102 80 105 3 3 18 23 34 46 43 64 31 116 -32
134 -27 8 -35 5 -64 -23z"/>
<path d="M2130 4217 c-3 -3 -36 -7 -75 -11 -38 -3 -81 -8 -95 -11 -14 -3 -52
-10 -85 -16 -285 -51 -593 -187 -840 -369 -127 -94 -155 -122 -155 -157 0 -16
4 -33 10 -39 6 -6 -9 -28 -45 -64 -49 -48 -57 -52 -78 -43 -39 18 -77 -7 -143
-93 -138 -179 -243 -367 -317 -564 -34 -91 -81 -252 -91 -315 -3 -16 -8 -41
-10 -55 -3 -14 -7 -41 -10 -60 -3 -19 -8 -57 -12 -85 -16 -103 -8 -437 12
-540 9 -47 15 -82 19 -105 33 -208 168 -533 309 -743 313 -468 788 -790 1328
-901 169 -35 241 -41 458 -40 199 1 323 16 495 60 596 153 1100 566 1375 1125
86 175 161 415 186 594 3 22 9 65 14 95 9 61 6 440 -5 510 -55 364 -200 713
-414 995 -158 208 -384 409 -611 543 -232 137 -544 244 -805 277 -61 7 -409
17 -415 12z"/>
<path d="M4230 4168 c-108 -19 -211 -99 -265 -205 -27 -53 -30 -67 -30 -158 0
-93 2 -105 32 -166 114 -230 418 -282 598 -102 157 158 145 416 -27 554 -84
68 -199 97 -308 77z m165 -162 c91 -38 147 -148 126 -247 -17 -80 -54 -125
-130 -161 -206 -96 -405 156 -266 337 64 85 170 112 270 71z"/>
<path d="M4717 3491 c-71 -37 -139 -77 -153 -87 -45 -35 -36 -103 17 -124 25
-11 36 -8 91 19 270 132 310 168 257 235 -32 41 -68 34 -212 -43z"/>
<path d="M4292 3257 c-46 -49 -14 -122 53 -120 44 1 62 17 71 60 13 67 -77
110 -124 60z"/>
</g>
</svg>
